# xmcd
#
# Track frame offsets:
#	150
#	15151
#	25302
#	43284
#	69198
#	81178
#	96830
#	107898
#	125800
#	140154
#
# Disc length: 2004 seconds
#
# Revision: 1
# Processed by: cddbd v1.5.2PL0 Copyright (c) Steve Scherf et al.
# Submitted via: audiograbber 1.83.01
#
DISCID=8707d20a
DTITLE=Ray Charles - Have A Smile With Me
DYEAR=1900
DGENRE=Blues
TTITLE0=Smack Dab In The Middle
TTITLE1=Feudin' and Fightin'
TTITLE2=Two Ton Tessie
TTITLE3=I Never See Maggie Alone
TTITLE4=Move It On Over
TTITLE5=Ma (He's Makin' Eyes At Me)
TTITLE6=The Thing
TTITLE7=The Man With The Weird Beard
TTITLE8=The Naughty Lady Of Shady Lane
TTITLE9=Who Cares
EXTD=
EXTT0=
EXTT1=
EXTT2=
EXTT3=
EXTT4=
EXTT5=
EXTT6=
EXTT7=
EXTT8=
EXTT9=
PLAYORDER=
